<svg xmlns="http://www.w3.org/2000/svg" width="500" height="500" viewBox="0 0 500 500" version="1.1">
    <path
        d="M 231.469 3.988 C 169.639 9.197, 115.101 35.010, 72.250 79.347 C 35.966 116.889, 13.535 162.574, 5.398 215.500 C 3.103 230.434, 2.803 267.688, 4.868 281.500 C 13.534 339.465, 36.148 385.099, 75.996 425.033 C 107.909 457.015, 147.572 479.583, 190.173 489.999 C 213.456 495.691, 221.121 496.507, 250.500 496.420 C 279.487 496.335, 287.959 495.364, 311.500 489.427 C 368.104 475.154, 417.401 440.818, 453.415 390.581 C 458.021 384.155, 458.847 382.429, 457.796 381.423 C 456.404 380.092, 380.442 336, 379.540 336 C 379.243 336, 379 344.508, 379 354.907 L 379 373.814 364.250 382.313 C 339.603 396.514, 214.069 468.996, 205.171 474.163 C 200.590 476.823, 196.428 479, 195.921 479 C 194.400 479, 194.724 404.467, 196.250 403.238 C 197.409 402.303, 205.797 397.431, 265.500 363.011 C 277.600 356.035, 299.425 343.426, 314 334.990 C 355.799 310.796, 378.371 298, 379.247 298 C 379.691 298, 400.653 309.905, 425.829 324.455 C 451.005 339.006, 472.373 351.206, 473.314 351.567 C 474.676 352.090, 475.607 350.928, 477.887 345.862 C 481.725 337.333, 486.507 323.042, 489.484 311.201 C 492.998 297.224, 493.448 293.615, 491.846 292.297 C 490.630 291.298, 449.324 267.358, 399.607 238.838 C 389.216 232.877, 380.328 228, 379.857 228 C 379.386 228, 379 236.319, 379 246.486 L 379 264.972 375.250 267.382 C 373.188 268.708, 356.425 278.460, 338 289.053 C 319.575 299.646, 298.875 311.547, 292 315.500 C 270.001 328.148, 253.183 337.880, 224.370 354.639 C 208.898 363.637, 195.960 371, 195.620 371 C 195.279 371, 195 353.937, 195 333.083 L 195 295.166 210.750 286.194 C 219.412 281.259, 236.400 271.491, 248.500 264.486 C 266.798 253.893, 342.478 210.199, 370 194.337 C 374.125 191.960, 378.253 190.012, 379.173 190.007 C 380.094 190.003, 389.994 195.323, 401.173 201.828 C 412.353 208.333, 429.600 218.311, 439.500 224 C 449.400 229.690, 465.877 239.217, 476.115 245.172 C 486.354 251.128, 495.241 256, 495.865 256 C 498.912 256, 496.356 221.623, 491.570 198.218 C 488.917 185.249, 487.861 181.943, 485.854 180.328 C 483.748 178.633, 380.288 119, 379.453 119 C 379.204 119, 379 127.531, 379 137.958 L 379 156.916 374.750 159.350 C 372.413 160.688, 360.825 167.374, 349 174.207 C 325.514 187.778, 288.882 208.916, 263 223.831 C 253.925 229.060, 235.410 239.788, 221.856 247.670 C 208.302 255.551, 196.710 262, 196.094 262 C 195.285 262, 195.048 251.586, 195.238 224.303 L 195.500 186.606 204 181.693 C 208.675 178.991, 220.375 172.267, 230 166.751 C 239.625 161.236, 252.675 153.695, 259 149.994 C 270.840 143.066, 357.501 93.048, 371.170 85.252 L 378.840 80.878 383.052 83.026 C 385.368 84.208, 393.842 89.039, 401.882 93.761 C 440.045 116.177, 464.531 129.856, 464.846 128.937 C 465.383 127.366, 455.436 112.099, 445.500 99.243 C 422.318 69.248, 393.253 45.613, 358.500 28.495 C 326.587 12.776, 293.683 4.751, 256.441 3.603 C 248.223 3.350, 236.986 3.523, 231.469 3.988 M 225 6.132 C 210.350 8.109, 203.994 9.217, 194 11.537 C 183.743 13.917, 169.497 18.102, 165.500 19.910 C 164.400 20.407, 161.607 21.520, 159.293 22.382 C 151.257 25.376, 142.678 29.461, 131.500 35.616 C 129.300 36.828, 125.468 38.909, 122.984 40.240 C 118.387 42.705, 106.713 51.106, 95.018 60.367 C 78.165 73.711, 51.483 103.838, 41.318 121 C 34.179 133.052, 23 155.183, 23 157.264 C 23 158.012, 22.101 160.485, 21.002 162.760 C 19.903 165.035, 17.591 171.982, 15.865 178.198 C 14.139 184.414, 12.373 190.400, 11.941 191.500 C 10.123 196.129, 7.239 213.286, 5.974 227 C 4.827 239.432, 4.833 261.898, 5.987 274.694 C 8.615 303.841, 19.321 340.318, 31.712 362.346 C 33.520 365.561, 35 368.379, 35 368.607 C 35 369.415, 46.431 387.581, 50.348 393 C 68.597 418.241, 94.310 442.251, 121.363 459.312 C 132.487 466.328, 157.883 478.363, 170.031 482.376 C 183.305 486.760, 199.941 491, 203.872 491 C 205.528 491, 207.126 491.395, 207.425 491.879 C 208.504 493.625, 245.224 496.095, 260.500 495.449 C 289.887 494.207, 320.543 487.197, 346.500 475.783 C 365.701 467.339, 385.998 455.665, 397.200 446.620 C 411.878 434.769, 416.960 430.206, 427.276 419.619 C 433.753 412.971, 440.278 405.725, 441.776 403.516 C 443.274 401.307, 446.406 397.128, 448.735 394.230 C 453.745 387.994, 456.315 383.319, 455.477 381.964 C 455.145 381.426, 453.439 380.260, 451.687 379.372 C 449.934 378.484, 442.200 374.049, 434.500 369.515 C 426.800 364.980, 418.475 360.109, 416 358.690 C 400.172 349.612, 393.930 346.068, 387.856 342.710 L 381 338.919 381 355.737 C 381 373.715, 380.465 375.948, 375.649 378.076 C 374.467 378.598, 371.925 379.961, 370 381.106 C 368.075 382.250, 361.325 386.150, 355 389.772 C 348.675 393.394, 338.657 399.202, 332.738 402.679 C 326.818 406.155, 321.751 409, 321.477 409 C 321.203 409, 317.046 411.405, 312.239 414.345 C 307.433 417.284, 299.225 422.079, 294 425 C 288.775 427.920, 282.700 431.454, 280.500 432.852 C 278.300 434.250, 273.575 436.937, 270 438.822 C 266.425 440.707, 262.825 442.797, 262 443.466 C 261.175 444.135, 253.374 448.691, 244.664 453.591 C 235.955 458.491, 227.630 463.276, 226.164 464.223 C 224.699 465.171, 221.337 467.104, 218.692 468.519 C 216.048 469.934, 210.917 472.909, 207.289 475.129 C 203.662 477.349, 199.712 479.539, 198.513 479.995 C 193.554 481.880, 193.517 481.628, 193.259 443.787 C 193.126 424.379, 193.275 407.259, 193.590 405.742 C 194.226 402.678, 199.268 398.805, 209.953 393.174 C 213.554 391.277, 217.694 388.886, 219.154 387.862 C 220.614 386.838, 222.128 386, 222.518 386 C 223.096 386, 230.015 382.007, 240 375.911 C 240.825 375.407, 242.448 374.582, 243.607 374.077 C 244.765 373.572, 248.365 371.442, 251.607 369.345 C 254.848 367.247, 259.075 364.752, 261 363.801 C 262.925 362.850, 266.300 360.934, 268.500 359.543 C 270.700 358.152, 273.175 356.717, 274 356.355 C 274.825 355.992, 276.175 355.151, 277 354.484 C 277.825 353.818, 282.100 351.348, 286.500 348.996 C 290.900 346.644, 294.950 344.393, 295.500 343.994 C 296.050 343.594, 298.525 342.141, 301 340.763 C 303.475 339.386, 309.550 335.877, 314.500 332.965 C 319.450 330.054, 328.779 324.658, 335.231 320.974 C 341.683 317.291, 347.533 313.806, 348.231 313.231 C 348.929 312.656, 351.975 310.861, 355 309.243 C 358.025 307.624, 362.637 305.107, 365.250 303.650 C 379.580 295.656, 381.265 295.205, 384.090 298.608 C 384.725 299.374, 385.684 300, 386.222 300 C 386.759 300, 389.741 301.513, 392.849 303.361 C 400.990 308.204, 439.293 330.494, 454.315 339.132 C 461.364 343.184, 468.339 347.255, 469.815 348.177 C 471.292 349.099, 472.950 349.884, 473.500 349.921 C 475.708 350.068, 486.756 318.007, 489.575 303.271 C 491.414 293.658, 491.404 293.525, 488.750 292.186 C 483.796 289.688, 465.499 279.202, 457 273.991 C 454.525 272.474, 450.475 270.117, 448 268.755 C 445.525 267.392, 439.450 263.920, 434.500 261.038 C 429.550 258.157, 419.949 252.582, 413.165 248.650 C 406.380 244.717, 398.730 240.271, 396.165 238.769 C 389.005 234.578, 382.152 231, 381.283 230.999 C 380.852 230.999, 380.653 238.005, 380.841 246.568 C 381.029 255.132, 380.929 263.149, 380.619 264.383 C 380.037 266.701, 369.407 273.607, 352.692 282.527 C 350.048 283.938, 344.873 286.937, 341.192 289.191 C 337.512 291.445, 332.250 294.521, 329.500 296.027 C 324.641 298.686, 301.222 312.189, 284 322.261 C 265.069 333.332, 258.698 337, 258.403 337 C 258.232 337, 251.659 340.770, 243.796 345.377 C 235.933 349.984, 227.925 354.646, 226 355.736 C 224.075 356.827, 216.939 360.932, 210.143 364.860 C 203.347 368.787, 196.967 372, 195.965 372 C 193.294 372, 192.958 366.573, 193.248 328.107 L 193.500 294.714 202 289.393 C 206.675 286.466, 210.885 284.055, 211.355 284.036 C 211.825 284.016, 214.210 282.650, 216.655 281 C 219.100 279.350, 221.440 278, 221.854 278 C 222.269 278, 224.662 276.698, 227.171 275.107 C 229.680 273.515, 233.931 270.961, 236.617 269.430 C 247.696 263.117, 252.475 260.371, 256.509 258 C 258.848 256.625, 265.653 252.660, 271.631 249.188 C 277.609 245.716, 283.175 242.463, 284 241.959 C 285.335 241.143, 300.193 232.680, 308.685 227.900 C 310.436 226.914, 313.690 224.958, 315.915 223.554 C 318.140 222.149, 320.199 221, 320.491 221 C 320.783 221, 325.023 218.525, 329.913 215.500 C 334.803 212.475, 339.016 210, 339.274 210 C 339.533 210, 343.765 207.637, 348.678 204.750 C 361.729 197.081, 362.943 196.389, 369.177 193.069 C 372.300 191.405, 375.139 189.585, 375.486 189.022 C 376.527 187.339, 379.194 187.850, 385 190.846 C 390.606 193.738, 436.990 220.336, 451.500 228.978 C 455.900 231.599, 461.525 234.862, 464 236.231 C 466.475 237.600, 474.105 241.939, 480.955 245.875 C 487.806 249.810, 493.881 252.873, 494.455 252.682 C 495.030 252.490, 495.545 250.881, 495.600 249.105 C 495.766 243.756, 493.199 214.927, 491.985 208.500 C 490.176 198.920, 486.034 182.624, 485.233 181.936 C 484.830 181.589, 476.400 176.683, 466.500 171.034 C 456.600 165.384, 447.150 159.977, 445.500 159.019 C 423.092 146.002, 414.248 140.845, 413 140.071 C 406.161 135.827, 382.924 123, 382.075 123 C 381.484 123, 380.982 123.338, 380.959 123.750 C 380.937 124.162, 380.898 131.668, 380.874 140.428 L 380.830 156.356 377.948 159.049 C 376.363 160.529, 373.589 162.473, 371.783 163.367 C 369.977 164.261, 365.800 166.570, 362.500 168.498 C 359.200 170.427, 354.250 173.179, 351.500 174.616 C 348.750 176.053, 345.825 177.804, 345 178.508 C 344.175 179.212, 339.900 181.792, 335.500 184.242 C 331.100 186.691, 320.300 192.862, 311.500 197.954 C 302.700 203.047, 291.225 209.660, 286 212.650 C 280.775 215.640, 275.825 218.487, 275 218.976 C 267.162 223.623, 237.757 240.606, 226.500 246.987 C 224.850 247.922, 217.464 252.197, 210.087 256.486 C 199.759 262.491, 196.309 264.054, 195.087 263.283 C 193.693 262.404, 193.470 257.865, 193.254 225.891 C 193.119 205.876, 193.229 188.532, 193.498 187.348 C 193.998 185.158, 199.473 181.446, 208.367 177.269 C 211.044 176.012, 215.230 173.637, 217.668 171.992 C 220.106 170.346, 222.310 169, 222.567 169 C 222.962 169, 225.916 167.307, 240 159.006 C 242.737 157.393, 266.365 143.749, 275 138.796 C 279.675 136.114, 284.175 133.518, 285 133.027 C 289.514 130.341, 304.119 121.913, 308 119.755 C 313.999 116.419, 335.108 104.205, 337 102.975 C 337.825 102.438, 343.900 98.908, 350.500 95.129 C 357.100 91.350, 365.695 86.401, 369.600 84.129 C 373.505 81.858, 377.780 80.005, 379.100 80.012 C 380.420 80.019, 383.525 81.199, 386 82.634 C 390.675 85.345, 396.985 88.926, 403 92.282 C 404.925 93.356, 407.694 95.081, 409.154 96.117 C 410.614 97.153, 412.158 98, 412.585 98 C 413.011 98, 416.092 99.732, 419.430 101.850 C 422.769 103.967, 430.225 108.351, 436 111.591 C 441.775 114.832, 447.281 117.937, 448.235 118.491 C 455.276 122.584, 460 124.747, 460 123.878 C 460 122.998, 453.734 113.628, 442.594 97.848 C 437.321 90.380, 409.695 63.506, 398.810 55.256 C 383.928 43.977, 373.588 37.774, 353.500 28.074 C 340.321 21.709, 318.704 14.040, 307 11.577 C 302.875 10.708, 296.350 9.344, 292.500 8.545 C 276.728 5.273, 240.868 3.991, 225 6.132"
        stroke="none" fill="#1668dc" fill-rule="evenodd" />
    <path
        d="M 225 6.132 C 210.350 8.109, 203.994 9.217, 194 11.537 C 183.743 13.917, 169.497 18.102, 165.500 19.910 C 164.400 20.407, 161.607 21.520, 159.293 22.382 C 151.257 25.376, 142.678 29.461, 131.500 35.616 C 129.300 36.828, 125.468 38.909, 122.984 40.240 C 118.387 42.705, 106.713 51.106, 95.018 60.367 C 78.165 73.711, 51.483 103.838, 41.318 121 C 34.179 133.052, 23 155.183, 23 157.264 C 23 158.012, 22.101 160.485, 21.002 162.760 C 19.903 165.035, 17.591 171.982, 15.865 178.198 C 14.139 184.414, 12.373 190.400, 11.941 191.500 C 10.123 196.129, 7.239 213.286, 5.974 227 C 4.827 239.432, 4.833 261.898, 5.987 274.694 C 8.615 303.841, 19.321 340.318, 31.712 362.346 C 33.520 365.561, 35 368.379, 35 368.607 C 35 369.415, 46.431 387.581, 50.348 393 C 68.597 418.241, 94.310 442.251, 121.363 459.312 C 132.487 466.328, 157.883 478.363, 170.031 482.376 C 183.305 486.760, 199.941 491, 203.872 491 C 205.528 491, 207.126 491.395, 207.425 491.879 C 208.504 493.625, 245.224 496.095, 260.500 495.449 C 289.887 494.207, 320.543 487.197, 346.500 475.783 C 365.701 467.339, 385.998 455.665, 397.200 446.620 C 411.878 434.769, 416.960 430.206, 427.276 419.619 C 433.753 412.971, 440.278 405.725, 441.776 403.516 C 443.274 401.307, 446.406 397.128, 448.735 394.230 C 453.745 387.994, 456.315 383.319, 455.477 381.964 C 455.145 381.426, 453.439 380.260, 451.687 379.372 C 449.934 378.484, 442.200 374.049, 434.500 369.515 C 426.800 364.980, 418.475 360.109, 416 358.690 C 400.172 349.612, 393.930 346.068, 387.856 342.710 L 381 338.919 381 355.737 C 381 373.715, 380.465 375.948, 375.649 378.076 C 374.467 378.598, 371.925 379.961, 370 381.106 C 368.075 382.250, 361.325 386.150, 355 389.772 C 348.675 393.394, 338.657 399.202, 332.738 402.679 C 326.818 406.155, 321.751 409, 321.477 409 C 321.203 409, 317.046 411.405, 312.239 414.345 C 307.433 417.284, 299.225 422.079, 294 425 C 288.775 427.920, 282.700 431.454, 280.500 432.852 C 278.300 434.250, 273.575 436.937, 270 438.822 C 266.425 440.707, 262.825 442.797, 262 443.466 C 261.175 444.135, 253.374 448.691, 244.664 453.591 C 235.955 458.491, 227.630 463.276, 226.164 464.223 C 224.699 465.171, 221.337 467.104, 218.692 468.519 C 216.048 469.934, 210.917 472.909, 207.289 475.129 C 203.662 477.349, 199.712 479.539, 198.513 479.995 C 193.554 481.880, 193.517 481.628, 193.259 443.787 C 193.126 424.379, 193.275 407.259, 193.590 405.742 C 194.226 402.678, 199.268 398.805, 209.953 393.174 C 213.554 391.277, 217.694 388.886, 219.154 387.862 C 220.614 386.838, 222.128 386, 222.518 386 C 223.096 386, 230.015 382.007, 240 375.911 C 240.825 375.407, 242.448 374.582, 243.607 374.077 C 244.765 373.572, 248.365 371.442, 251.607 369.345 C 254.848 367.247, 259.075 364.752, 261 363.801 C 262.925 362.850, 266.300 360.934, 268.500 359.543 C 270.700 358.152, 273.175 356.717, 274 356.355 C 274.825 355.992, 276.175 355.151, 277 354.484 C 277.825 353.818, 282.100 351.348, 286.500 348.996 C 290.900 346.644, 294.950 344.393, 295.500 343.994 C 296.050 343.594, 298.525 342.141, 301 340.763 C 303.475 339.386, 309.550 335.877, 314.500 332.965 C 319.450 330.054, 328.779 324.658, 335.231 320.974 C 341.683 317.291, 347.533 313.806, 348.231 313.231 C 348.929 312.656, 351.975 310.861, 355 309.243 C 358.025 307.624, 362.637 305.107, 365.250 303.650 C 379.580 295.656, 381.265 295.205, 384.090 298.608 C 384.725 299.374, 385.684 300, 386.222 300 C 386.759 300, 389.741 301.513, 392.849 303.361 C 400.990 308.204, 439.293 330.494, 454.315 339.132 C 461.364 343.184, 468.339 347.255, 469.815 348.177 C 471.292 349.099, 472.950 349.884, 473.500 349.921 C 475.708 350.068, 486.756 318.007, 489.575 303.271 C 491.414 293.658, 491.404 293.525, 488.750 292.186 C 483.796 289.688, 465.499 279.202, 457 273.991 C 454.525 272.474, 450.475 270.117, 448 268.755 C 445.525 267.392, 439.450 263.920, 434.500 261.038 C 429.550 258.157, 419.949 252.582, 413.165 248.650 C 406.380 244.717, 398.730 240.271, 396.165 238.769 C 389.005 234.578, 382.152 231, 381.283 230.999 C 380.852 230.999, 380.653 238.005, 380.841 246.568 C 381.029 255.132, 380.929 263.149, 380.619 264.383 C 380.037 266.701, 369.407 273.607, 352.692 282.527 C 350.048 283.938, 344.873 286.937, 341.192 289.191 C 337.512 291.445, 332.250 294.521, 329.500 296.027 C 324.641 298.686, 301.222 312.189, 284 322.261 C 265.069 333.332, 258.698 337, 258.403 337 C 258.232 337, 251.659 340.770, 243.796 345.377 C 235.933 349.984, 227.925 354.646, 226 355.736 C 224.075 356.827, 216.939 360.932, 210.143 364.860 C 203.347 368.787, 196.967 372, 195.965 372 C 193.294 372, 192.958 366.573, 193.248 328.107 L 193.500 294.714 202 289.393 C 206.675 286.466, 210.885 284.055, 211.355 284.036 C 211.825 284.016, 214.210 282.650, 216.655 281 C 219.100 279.350, 221.440 278, 221.854 278 C 222.269 278, 224.662 276.698, 227.171 275.107 C 229.680 273.515, 233.931 270.961, 236.617 269.430 C 247.696 263.117, 252.475 260.371, 256.509 258 C 258.848 256.625, 265.653 252.660, 271.631 249.188 C 277.609 245.716, 283.175 242.463, 284 241.959 C 285.335 241.143, 300.193 232.680, 308.685 227.900 C 310.436 226.914, 313.690 224.958, 315.915 223.554 C 318.140 222.149, 320.199 221, 320.491 221 C 320.783 221, 325.023 218.525, 329.913 215.500 C 334.803 212.475, 339.016 210, 339.274 210 C 339.533 210, 343.765 207.637, 348.678 204.750 C 361.729 197.081, 362.943 196.389, 369.177 193.069 C 372.300 191.405, 375.139 189.585, 375.486 189.022 C 376.527 187.339, 379.194 187.850, 385 190.846 C 390.606 193.738, 436.990 220.336, 451.500 228.978 C 455.900 231.599, 461.525 234.862, 464 236.231 C 466.475 237.600, 474.105 241.939, 480.955 245.875 C 487.806 249.810, 493.881 252.873, 494.455 252.682 C 495.030 252.490, 495.545 250.881, 495.600 249.105 C 495.766 243.756, 493.199 214.927, 491.985 208.500 C 490.176 198.920, 486.034 182.624, 485.233 181.936 C 484.830 181.589, 476.400 176.683, 466.500 171.034 C 456.600 165.384, 447.150 159.977, 445.500 159.019 C 423.092 146.002, 414.248 140.845, 413 140.071 C 406.161 135.827, 382.924 123, 382.075 123 C 381.484 123, 380.982 123.338, 380.959 123.750 C 380.937 124.162, 380.898 131.668, 380.874 140.428 L 380.830 156.356 377.948 159.049 C 376.363 160.529, 373.589 162.473, 371.783 163.367 C 369.977 164.261, 365.800 166.570, 362.500 168.498 C 359.200 170.427, 354.250 173.179, 351.500 174.616 C 348.750 176.053, 345.825 177.804, 345 178.508 C 344.175 179.212, 339.900 181.792, 335.500 184.242 C 331.100 186.691, 320.300 192.862, 311.500 197.954 C 302.700 203.047, 291.225 209.660, 286 212.650 C 280.775 215.640, 275.825 218.487, 275 218.976 C 267.162 223.623, 237.757 240.606, 226.500 246.987 C 224.850 247.922, 217.464 252.197, 210.087 256.486 C 199.759 262.491, 196.309 264.054, 195.087 263.283 C 193.693 262.404, 193.470 257.865, 193.254 225.891 C 193.119 205.876, 193.229 188.532, 193.498 187.348 C 193.998 185.158, 199.473 181.446, 208.367 177.269 C 211.044 176.012, 215.230 173.637, 217.668 171.992 C 220.106 170.346, 222.310 169, 222.567 169 C 222.962 169, 225.916 167.307, 240 159.006 C 242.737 157.393, 266.365 143.749, 275 138.796 C 279.675 136.114, 284.175 133.518, 285 133.027 C 289.514 130.341, 304.119 121.913, 308 119.755 C 313.999 116.419, 335.108 104.205, 337 102.975 C 337.825 102.438, 343.900 98.908, 350.500 95.129 C 357.100 91.350, 365.695 86.401, 369.600 84.129 C 373.505 81.858, 377.780 80.005, 379.100 80.012 C 380.420 80.019, 383.525 81.199, 386 82.634 C 390.675 85.345, 396.985 88.926, 403 92.282 C 404.925 93.356, 407.694 95.081, 409.154 96.117 C 410.614 97.153, 412.158 98, 412.585 98 C 413.011 98, 416.092 99.732, 419.430 101.850 C 422.769 103.967, 430.225 108.351, 436 111.591 C 441.775 114.832, 447.281 117.937, 448.235 118.491 C 455.276 122.584, 460 124.747, 460 123.878 C 460 122.998, 453.734 113.628, 442.594 97.848 C 437.321 90.380, 409.695 63.506, 398.810 55.256 C 383.928 43.977, 373.588 37.774, 353.500 28.074 C 340.321 21.709, 318.704 14.040, 307 11.577 C 302.875 10.708, 296.350 9.344, 292.500 8.545 C 276.728 5.273, 240.868 3.991, 225 6.132"
        stroke="none" fill="#1668dc" fill-rule="evenodd" />
</svg>